<svg width="421" height="273" viewBox="0 0 421 273" fill="none" xmlns="http://www.w3.org/2000/svg">
<path d="M96.0334 0.441096C95.4723 0.163262 94.8134 0.164243 94.2531 0.443745L3.62246 45.6553C2.13981 46.3949 2.14798 48.5133 3.63629 49.2415L94.2497 93.5751C94.8121 93.8503 95.471 93.8461 96.03 93.5639L185.584 48.3524C187.055 47.6096 187.047 45.506 185.57 44.7747L96.0334 0.441096Z" fill="#553E7C"/>
<path d="M0.0776493 54.3746C0.0421107 52.882 1.59531 51.8781 2.94165 52.5235L92.6968 95.5509C93.9277 96.141 94.2189 97.7633 93.2701 98.7446L50.7627 142.709C50.4021 143.082 50.2005 143.581 50.2005 144.1V182.313C50.2005 183.73 48.7665 184.698 47.4519 184.167L3.95771 166.61C3.21755 166.312 2.72591 165.601 2.70691 164.803L0.0776493 54.3746Z" fill="#553E7C"/>
<path d="M54.6113 145.452C54.2632 145.823 54.0694 146.312 54.0694 146.821V245.866C54.0694 247.688 56.3075 248.561 57.5413 247.22L95.5207 205.938C95.8642 205.565 96.053 205.075 96.0487 204.567L95.1984 102.218L54.6113 145.452Z" fill="#553E7C"/>
<path d="M239.355 141.291C239.355 142.395 238.46 143.291 237.355 143.291H191.134C190.037 143.291 189.145 142.408 189.134 141.312L188.255 56.9802C188.247 56.1835 188.712 55.4579 189.44 55.1331L236.54 34.1064C237.863 33.5159 239.355 34.484 239.355 35.9327V141.291Z" fill="#E9A900"/>
<path d="M106.17 135L122.355 87.55H137.435L154.075 135H144.585L130.48 93.855L133.795 95.285H125.67L129.05 93.855L115.4 135H106.17ZM117.48 122.39L120.405 114.59H139.645L142.505 122.39H117.48ZM174.52 136.235C171.096 136.235 168.085 135.563 165.485 134.22C162.885 132.877 160.87 130.905 159.44 128.305C158.01 125.705 157.295 122.52 157.295 118.75V116.67H166.46V119.53C166.46 122.043 167.196 124.037 168.67 125.51C170.143 126.94 172.071 127.655 174.455 127.655C176.881 127.655 178.81 126.94 180.24 125.51C181.713 124.037 182.45 122.043 182.45 119.53V94.375H191.68V118.75C191.68 122.52 190.965 125.705 189.535 128.305C188.105 130.905 186.111 132.877 183.555 134.22C180.998 135.563 177.986 136.235 174.52 136.235ZM163.08 95.675V87.55H191.68V95.675H163.08ZM222.139 136.235C217.719 136.235 213.992 135.39 210.959 133.7C207.925 132.01 205.607 129.648 204.004 126.615C202.444 123.538 201.664 119.942 201.664 115.825V87.55H210.894V116.345C210.894 118.598 211.327 120.592 212.194 122.325C213.06 124.015 214.317 125.337 215.964 126.29C217.654 127.2 219.712 127.655 222.139 127.655C224.522 127.655 226.537 127.2 228.184 126.29C229.874 125.337 231.13 124.015 231.954 122.325C232.82 120.635 233.254 118.642 233.254 116.345V87.55H242.484V115.825C242.484 119.942 241.704 123.538 240.144 126.615C238.627 129.648 236.352 132.01 233.319 133.7C230.285 135.39 226.559 136.235 222.139 136.235ZM261.221 135.26V126.68H271.036C273.506 126.68 275.695 126.312 277.601 125.575C279.551 124.795 281.198 123.712 282.541 122.325C283.885 120.938 284.903 119.313 285.596 117.45C286.333 115.543 286.701 113.442 286.701 111.145C286.701 108.762 286.333 106.638 285.596 104.775C284.903 102.868 283.885 101.243 282.541 99.9C281.198 98.5567 279.551 97.5383 277.601 96.845C275.695 96.1517 273.506 95.805 271.036 95.805H261.221V87.225H270.451C274.741 87.225 278.49 87.8533 281.696 89.11C284.903 90.3667 287.568 92.1 289.691 94.31C291.815 96.4767 293.396 98.9683 294.436 101.785C295.52 104.558 296.061 107.44 296.061 110.43V111.86C296.061 114.72 295.52 117.537 294.436 120.31C293.396 123.083 291.815 125.597 289.691 127.85C287.568 130.103 284.903 131.902 281.696 133.245C278.49 134.588 274.741 135.26 270.451 135.26H261.221ZM253.291 135.26V87.225H262.521V135.26H253.291ZM304.327 135V87.55H313.362V135H304.327ZM312.062 135V127.2H333.577V135H312.062ZM312.062 114.785V106.985H331.887V114.785H312.062ZM312.062 95.35V87.55H333.057V95.35H312.062Z" fill="#553E7C"/>
<path d="M124.5 216.235C121.077 216.235 118.065 215.563 115.465 214.22C112.865 212.877 110.85 210.905 109.42 208.305C107.99 205.705 107.275 202.52 107.275 198.75V196.67H116.44V199.53C116.44 202.043 117.177 204.037 118.65 205.51C120.123 206.94 122.052 207.655 124.435 207.655C126.862 207.655 128.79 206.94 130.22 205.51C131.693 204.037 132.43 202.043 132.43 199.53V174.375H141.66V198.75C141.66 202.52 140.945 205.705 139.515 208.305C138.085 210.905 136.092 212.877 133.535 214.22C130.978 215.563 127.967 216.235 124.5 216.235ZM113.06 175.675V167.55H141.66V175.675H113.06ZM145.97 215L162.155 167.55H177.235L193.875 215H184.385L170.28 173.855L173.595 175.285H165.47L168.85 173.855L155.2 215H145.97ZM157.28 202.39L160.205 194.59H179.445L182.305 202.39H157.28ZM164.69 163.91L172.88 152.6H182.76L173.205 163.91H164.69ZM200.533 199.595V167.55H209.763V199.595H200.533ZM199.818 215V205.38H210.478V215H199.818Z" fill="#553E7C"/>
</svg>
