<svg width="302" height="317" viewBox="0 0 302 317" fill="none" xmlns="http://www.w3.org/2000/svg">
<path d="M120.934 0.441069C120.373 0.163235 119.714 0.164213 119.154 0.443714L3.62247 58.0772C2.13982 58.8169 2.14798 60.9353 3.63629 61.6634L119.151 118.18C119.713 118.455 120.372 118.451 120.931 118.169L235.09 60.5354C236.561 59.7927 236.553 57.6891 235.076 56.9578L120.934 0.441069Z" fill="#553E7C"/>
<path d="M0.0776491 67.7521C0.0421105 66.2595 1.59531 65.2556 2.94165 65.901L117.613 120.873C118.843 121.463 119.135 123.085 118.186 124.066L63.9014 180.212C63.5408 180.585 63.3392 181.083 63.3392 181.602V230.804C63.3392 232.221 61.9051 233.189 60.5906 232.658L4.67437 210.087C3.93421 209.789 3.44256 209.078 3.42356 208.28L0.0776491 67.7521Z" fill="#553E7C"/>
<path d="M68.7625 183.671C68.4144 184.042 68.2206 184.531 68.2206 185.04V311.557C68.2206 313.379 70.4587 314.252 71.6925 312.911L120.661 259.685C121.004 259.311 121.193 258.821 121.189 258.314L120.114 128.97L68.7625 183.671Z" fill="#553E7C"/>
<path d="M302 178.793C302 179.898 301.105 180.793 300 180.793H240.64C239.543 180.793 238.651 179.911 238.64 178.814L237.523 71.5498C237.514 70.7531 237.98 70.0275 238.707 69.7027L299.185 42.7039C300.508 42.1133 302 43.0814 302 44.5302V178.793Z" fill="#E9A900"/>
</svg>
